<?xml version="1.0" standalone="no"?>
<!DOCTYPE svg PUBLIC "-//W3C//DTD SVG 20010904//EN"
 "http://www.w3.org/TR/2001/REC-SVG-20010904/DTD/svg10.dtd">
<svg version="1.0" xmlns="http://www.w3.org/2000/svg"
 width="1000.000000pt" height="1000.000000pt" viewBox="0 0 1000.000000 1000.000000"
 preserveAspectRatio="xMidYMid meet">

<g transform="translate(0.000000,1000.000000) scale(0.100000,-0.100000)"
fill="#000000" stroke="none">
<path d="M3000 8470 c-8 -5 -41 -10 -72 -10 -32 0 -77 -4 -100 -10 -24 -5 -70
-14 -103 -20 -206 -38 -489 -170 -646 -302 -21 -18 -61 -51 -87 -73 -27 -22
-57 -53 -67 -68 -9 -16 -36 -51 -59 -78 -87 -102 -167 -230 -196 -312 -10 -29
-28 -76 -39 -106 -39 -96 -62 -191 -81 -333 -5 -38 -12 -72 -15 -78 -8 -13
-18 -384 -22 -815 -5 -480 11 -2732 19 -2740 7 -7 43 12 70 37 10 10 22 18 28
18 5 0 10 7 10 15 0 9 9 15 23 15 14 0 42 17 68 41 24 22 59 47 77 55 18 7 50
27 70 44 20 16 42 30 48 30 6 0 21 9 34 20 13 11 28 20 35 20 7 0 20 9 30 20
10 11 28 20 39 20 28 1 106 36 106 49 0 5 21 13 46 17 25 3 48 13 51 20 3 9
21 14 47 14 46 0 72 12 62 29 -5 7 1 11 15 11 17 0 20 3 12 11 -6 6 -8 23 -4
42 4 18 6 93 4 167 -15 639 -7 1548 17 1880 27 378 105 635 260 866 90 132
251 288 390 375 62 39 224 119 241 119 6 0 25 6 42 14 47 21 211 62 297 75
236 33 348 36 1365 36 1116 0 1194 -3 1454 -61 420 -94 751 -345 935 -712 105
-210 158 -448 176 -792 12 -230 12 -1843 0 -2080 -13 -252 -51 -460 -116 -630
-24 -64 -101 -220 -113 -230 -3 -3 -15 -21 -25 -40 -25 -45 -152 -195 -203
-240 -165 -146 -312 -231 -509 -294 -174 -55 -300 -79 -478 -90 -72 -5 -92
-17 -75 -48 5 -10 7 -18 4 -18 -2 0 4 -15 15 -32 11 -18 20 -50 20 -70 0 -20
11 -58 25 -84 14 -26 25 -55 25 -64 0 -10 7 -23 15 -30 8 -7 15 -28 15 -46 0
-19 4 -42 8 -52 5 -9 16 -32 25 -50 9 -19 17 -48 17 -66 0 -18 7 -41 15 -52 8
-10 15 -37 15 -59 0 -22 7 -49 15 -59 9 -11 15 -42 15 -70 0 -75 6 -80 107
-88 154 -11 572 -9 596 3 12 7 53 12 92 11 38 0 84 4 100 8 17 5 75 19 130 31
55 12 127 31 160 41 71 23 293 133 351 174 217 154 364 325 484 564 57 112
107 258 129 375 7 33 16 79 21 103 6 23 10 79 10 125 0 87 7 130 20 122 14 -8
16 35 14 340 -4 838 -3 2828 1 2836 9 13 -7 109 -16 103 -5 -3 -10 48 -10 113
-3 284 -18 683 -28 738 -29 171 -71 298 -151 452 -141 276 -347 482 -623 624
-102 53 -212 95 -282 109 -22 5 -58 14 -80 20 -22 6 -69 16 -105 21 -36 5 -96
15 -135 21 -93 14 -4053 22 -4075 8z"/>
<path d="M4040 7100 c-304 -11 -466 -43 -639 -128 -157 -77 -306 -224 -378
-375 -121 -251 -136 -435 -131 -1634 3 -914 -3 -848 84 -818 38 13 104 18 305
22 222 5 270 4 355 -12 55 -10 107 -22 118 -27 12 -7 22 -6 29 1 14 14 54 14
62 1 3 -6 19 -10 35 -10 16 0 39 -4 53 -9 44 -17 50 3 12 42 -19 20 -35 38
-35 41 0 3 -19 36 -42 73 -55 90 -132 256 -147 318 -7 28 -17 59 -21 70 -23
52 -42 208 -41 334 1 126 24 324 41 346 4 6 11 28 14 50 8 44 91 240 113 266
7 8 13 19 13 23 0 16 116 171 174 233 79 85 188 173 297 239 49 30 91 54 94
54 3 0 24 9 48 19 82 38 121 51 226 79 100 25 119 27 321 27 225 0 245 -3 420
-56 95 -30 279 -124 364 -188 127 -96 166 -133 247 -233 156 -195 239 -373
284 -613 25 -127 17 -502 -11 -547 -3 -4 -12 -34 -20 -65 -29 -113 -100 -264
-182 -388 -57 -85 -246 -278 -325 -331 -131 -89 -272 -158 -372 -184 -27 -7
-54 -16 -60 -20 -5 -4 -30 -11 -55 -14 -25 -4 -74 -14 -110 -23 -36 -9 -81
-15 -100 -15 -69 3 -66 -11 16 -79 43 -35 94 -75 114 -88 19 -13 62 -50 95
-82 124 -119 190 -179 196 -179 4 0 14 -18 23 -39 8 -22 24 -42 36 -46 11 -3
20 -13 20 -21 0 -8 22 -38 50 -67 27 -28 57 -66 67 -84 9 -17 26 -37 38 -43
29 -16 309 -17 442 -2 486 55 764 283 872 717 47 188 58 459 59 1360 1 993
-14 1249 -83 1461 -52 159 -102 241 -220 360 -91 93 -109 106 -205 152 -198
94 -332 119 -700 132 -279 10 -1581 10 -1860 0z m2462 -428 c66 -29 136 -97
167 -162 21 -45 26 -69 26 -135 0 -68 -5 -88 -30 -139 -31 -61 -83 -113 -150
-149 -33 -18 -57 -22 -135 -22 -84 0 -101 3 -146 27 -108 57 -165 143 -172
258 -2 41 1 93 7 116 24 91 113 183 211 218 58 21 159 15 222 -12z"/>
<path d="M4875 5840 c-16 -5 -61 -16 -100 -25 -281 -65 -529 -317 -602 -612
-23 -92 -23 -313 -1 -404 33 -135 105 -268 204 -378 95 -105 279 -214 421
-248 77 -19 307 -29 338 -15 11 5 50 16 88 25 80 20 158 55 247 113 282 183
429 535 360 865 -58 281 -250 515 -510 622 -133 55 -352 83 -445 57z"/>
</g>
</svg>
