<?xml version="1.0" standalone="no"?>
<!DOCTYPE svg PUBLIC "-//W3C//DTD SVG 20010904//EN"
 "http://www.w3.org/TR/2001/REC-SVG-20010904/DTD/svg10.dtd">
<svg version="1.0" xmlns="http://www.w3.org/2000/svg"
 width="1000.000000pt" height="1000.000000pt" viewBox="0 0 1000.000000 1000.000000"
 preserveAspectRatio="xMidYMid meet">

<g transform="translate(0.000000,1000.000000) scale(0.100000,-0.100000)"
fill="#000000" stroke="none">
<path d="M3775 8474 c-396 -8 -1148 -40 -1420 -60 -551 -40 -896 -77 -1170
-128 -244 -45 -460 -161 -645 -346 -137 -138 -231 -288 -294 -470 -25 -74 -34
-111 -62 -260 -38 -208 -54 -322 -94 -685 -12 -110 -35 -409 -52 -690 -18
-287 -18 -1427 0 -1710 18 -277 49 -651 67 -800 29 -239 34 -272 54 -385 70
-394 109 -510 238 -704 162 -244 393 -414 683 -504 130 -40 665 -107 1010
-127 52 -3 154 -10 225 -15 153 -11 653 -35 1055 -50 766 -29 2862 -29 3480
-1 124 6 329 16 455 21 682 32 1205 82 1515 146 328 68 593 245 791 529 70
101 153 289 173 395 4 19 11 53 16 75 50 218 125 788 150 1150 28 397 50 1080
43 1325 -13 483 -25 792 -33 895 -24 280 -42 464 -50 525 -5 36 -12 90 -15
120 -15 138 -60 397 -109 620 -50 227 -171 447 -341 616 -198 197 -428 310
-740 363 -162 28 -505 65 -715 76 -58 3 -161 10 -230 15 -115 9 -382 21 -1075
51 -231 10 -2566 20 -2910 13z m339 -2019 c32 -19 60 -35 62 -35 2 0 27 -14
56 -31 29 -18 73 -43 98 -57 44 -25 571 -327 700 -402 62 -36 323 -185 385
-220 17 -9 122 -70 235 -135 113 -65 225 -129 250 -143 25 -13 50 -28 55 -32
6 -4 30 -19 55 -32 25 -14 137 -78 250 -143 113 -65 221 -127 240 -138 80 -45
140 -82 140 -88 0 -3 -39 -28 -87 -56 -49 -27 -180 -103 -293 -168 -113 -65
-225 -129 -250 -143 -25 -13 -49 -28 -55 -32 -5 -4 -30 -19 -55 -32 -25 -14
-137 -78 -250 -143 -113 -65 -218 -126 -235 -135 -62 -35 -323 -184 -385 -220
-129 -75 -656 -377 -700 -402 -25 -14 -69 -39 -98 -57 -29 -17 -55 -31 -57
-31 -2 0 -31 -16 -64 -36 -33 -20 -65 -33 -71 -29 -11 7 -15 2957 -3 2968 10
11 16 9 77 -28z"/>
</g>
</svg>
